<mxfile host="app.diagrams.net" modified="2024-05-16T06:31:09.471Z" agent="Mozilla/5.0 (Windows NT 10.0; Win64; x64) AppleWebKit/537.36 (KHTML, like Gecko) Chrome/124.0.0.0 Safari/537.36" version="24.3.1" etag="p1Z3ahGnJao8Y2CfYihX" type="github">
  <diagram name="Page-1" id="6nMQDZ4U3SEWld4J9Swz">
    <mxGraphModel>
      <root>
        <mxCell id="0" />
        <mxCell id="1" parent="0" />
      </root>
    </mxGraphModel>
  </diagram>
</mxfile>
